#!OML:ASF F:\VICON\USERDATA\INSTALL\rory3\rory3.ASF
:FULLY-SPECIFIED
:DEGREES
4237
root 0.803131 15.9339 -6.58385 0.444286 3.47124 0.0578038
lowerback 15.0549 -3.13479 -5.4669
upperback 2.32022 -4.9824 0.468665
thorax -5.43612 -2.33815 4.52794
lowerneck -15.0516 -3.10155 -14.1433
upperneck 24.5249 -3.35609 10.1941
head 10.7831 -1.6762 5.66923
rclavicle -2.0276e-014 -3.97569e-015
rhumerus 36.3979 11.6081 -76.1506
rradius 103.676
rwrist -53.6097
rhand -9.19879 22.6003
rfingers 7.12502
rthumb 16.7551 -6.69668
lclavicle -2.0276e-014 -3.97569e-015
lhumerus 36.6336 -15.0199 84.445
lradius 100.996
lwrist 45.8439
lhand 1.69302 11.7859
lfingers 7.12502
lthumb 27.211 39.8434
rfemur -47.0733 -4.80874 13.2849
rtibia 63.6066
rfoot -1.60081 4.34649
rtoes 5.93921
lfemur -0.663358 -1.60839 -9.84768
ltibia 57.3046
lfoot -14.9014 -18.5659
ltoes -34.3075
4238
root 0.848921 16.1084 -6.58659 0.754577 3.17609 0.01675
lowerback 14.0523 -3.25542 -5.07618
upperback 2.671 -5.01615 0.460175
thorax -4.5464 -2.40455 4.2102
lowerneck -15.7059 -3.03428 -13.4971
upperneck 24.3148 -3.26295 9.93334
head 10.803 -1.58397 5.46519
rclavicle -5.66536e-014 1.59028e-015
rhumerus 34.8824 12.1204 -75.5204
rradius 103.777
rwrist -50.2451
rhand -9.6444 22.547
rfingers 7.12502
rthumb 16.3261 -6.78577
lclavicle -5.66536e-014 1.59028e-015
lhumerus 34.5615 -15.181 83.7716
lradius 101.353
lwrist 42.8896
lhand 0.137989 12.4451
lfingers 7.12502
lthumb 25.7225 40.7268
rfemur -46.3756 -4.6765 13.23
rtibia 61.5537
rfoot 0.148843 3.49738
rtoes 7.35213
lfemur -0.94477 -1.72704 -10.0617
ltibia 56.1021
lfoot -11.3888 -19.1013
ltoes -33.5337
4239
root 0.892276 16.2873 -6.585 1.0113 2.86883 0.0914459
lowerback 13.9058 -3.32049 -5.15153
upperback 2.50897 -5.09666 0.733403
thorax -4.59694 -2.43807 4.54904
lowerneck -15.9586 -2.92838 -13.429
upperneck 24.2362 -3.03678 9.72477
head 10.7883 -1.49124 5.4036
rclavicle 4.46769e-014 -6.75868e-015
rhumerus 32.7681 13.146 -74.5231
rradius 103.872
rwrist -46.4251
rhand -10.2423 22.4437
rfingers 7.12502
rthumb 15.7503 -6.93541
lclavicle 4.46769e-014 -6.75868e-015
lhumerus 31.5355 -15.0547 83.76
lradius 101.722
lwrist 40.2333
lhand -0.567989 12.3897
lfingers 7.12502
lthumb 25.0462 40.7675
rfemur -45.6172 -4.49163 13.0321
rtibia 59.5405
rfoot 1.92226 2.3988
rtoes 8.49218
lfemur -1.17469 -1.80935 -10.331
ltibia 54.8869
lfoot -7.49102 -19.6185
ltoes -32.6473
4240
root 0.936098 16.4735 -6.58026 1.21896 2.50358 0.126919
lowerback 13.7301 -3.29776 -5.02389
upperback 2.52305 -5.03096 0.889166
thorax -4.48983 -2.4119 4.61679
lowerneck -16.4677 -2.97595 -13.3156
upperneck 24.0891 -3.03767 9.64705
head 10.8313 -1.47612 5.35143
rclavicle -3.11098e-014 -2.78299e-015
rhumerus 30.7796 13.9009 -73.5492
rradius 103.892
rwrist -42.5365
rhand -10.8763 22.2837
rfingers 7.12502
rthumb 15.1397 -7.14252
lclavicle -3.11098e-014 -2.78299e-015
lhumerus 28.7758 -15.2576 83.6415
lradius 101.871
lwrist 37.6054
lhand -1.03809 12.1211
lfingers 7.12502
lthumb 24.5957 40.561
rfemur -44.8227 -4.14468 12.8077
rtibia 57.5532
rfoot 3.48413 0.854811
rtoes 10.7638
lfemur -1.38906 -1.8101 -10.5266
ltibia 53.6539
lfoot -3.37438 -20.0588
ltoes -31.393
4241
root 0.977594 16.6624 -6.57612 1.38175 2.20558 0.0456399
lowerback 13.6687 -3.17051 -4.66489
upperback 2.59469 -4.80359 0.944801
thorax -4.43113 -2.30779 4.43123
lowerneck -17.2062 -3.15742 -12.8416
upperneck 24.0502 -3.28688 9.48291
head 10.9842 -1.54841 5.1742
rclavicle 1.93318e-014 1.0138e-014
rhumerus 28.5929 14.2247 -72.637
rradius 103.846
rwrist -38.9593
rhand -11.2944 22.5597
rfingers 7.12502
rthumb 14.7369 -6.8964
lclavicle 1.93318e-014 1.0138e-014
lhumerus 26.0691 -16.0066 83.5946
lradius 101.752
lwrist 34.763
lhand -1.40557 11.5875
lfingers 7.12502
lthumb 24.2434 40.0749
rfemur -43.9733 -3.76337 12.6627
rtibia 55.6022
rfoot 4.76714 -0.931112
rtoes 12.5285
lfemur -1.66195 -1.78462 -10.5588
ltibia 52.4326
lfoot 0.0511378 -20.6301
ltoes -30.5772
4242
root 1.0161 16.8494 -6.56919 1.46705 1.97265 0.0661247
lowerback 13.6817 -3.0951 -4.45449
upperback 2.62523 -4.67095 0.998159
thorax -4.43264 -2.24534 4.3486
lowerneck -17.7806 -3.26592 -12.4109
upperneck 24.0114 -3.43473 9.26901
head 11.09 -1.5881 4.99802
rclavicle 4.37326e-014 -1.0138e-014
rhumerus 26.2671 14.7659 -71.7764
rradius 103.71
rwrist -35.5829
rhand -11.6939 22.897
rfingers 7.12502
rthumb 14.352 -6.58688
lclavicle 4.37326e-014 -1.0138e-014
lhumerus 23.2887 -16.5877 83.5696
lradius 101.465
lwrist 32.064
lhand -1.80903 11.1577
lfingers 7.12502
lthumb 23.8565 39.6962
rfemur -43.0421 -3.45773 12.4137
rtibia 53.7801
rfoot 5.81329 -2.47564
rtoes 11.0565
lfemur -1.91129 -1.89832 -10.7031
ltibia 51.2653
lfoot 2.51167 -21.4206
ltoes -29.7854
4243
root 1.05252 17.0268 -6.56273 1.61712 1.7781 0.0572929
lowerback 13.626 -3.11645 -4.24123
upperback 2.55658 -4.66304 1.09605
thorax -4.48454 -2.24097 4.33012
lowerneck -18.0931 -3.29514 -12.194
upperneck 23.9422 -3.46959 9.1597
head 11.1235 -1.58923 4.91257
rclavicle 2.18166e-014 5.1684e-015
rhumerus 23.8254 15.6843 -71.1187
rradius 103.487
rwrist -32.3277
rhand -12.0031 23.2342
rfingers 7.12502
rthumb 14.054 -6.27065
lclavicle 2.18166e-014 5.1684e-015
lhumerus 20.3054 -16.9671 83.5835
lradius 101.099
lwrist 29.6227
lhand -2.40097 11.0187
lfingers 7.12502
lthumb 23.2888 39.6302
rfemur -42.2113 -3.05384 12.1883
rtibia 52.1956
rfoot 6.16947 -3.85236
rtoes 8.45474
lfemur -2.25425 -2.08674 -10.7725
ltibia 50.1865
lfoot 4.16479 -22.4239
ltoes -28.8715
4244
root 1.0911 17.1797 -6.55715 1.82283 1.59569 0.00849117
lowerback 13.4332 -3.15196 -3.87743
upperback 2.5277 -4.6488 1.1571
thorax -4.43539 -2.23973 4.17531
lowerneck -18.555 -3.34718 -11.9952
upperneck 23.911 -3.52532 9.08437
head 11.204 -1.59501 4.84196
rclavicle -3.99557e-014 1.5704e-014
rhumerus 21.4252 16.5336 -70.5688
rradius 103.209
rwrist -29.2948
rhand -12.2224 23.707
rfingers 7.12502
rthumb 13.8427 -5.81236
lclavicle -3.99557e-014 1.5704e-014
lhumerus 17.2912 -17.4492 83.6201
lradius 100.763
lwrist 27.6962
lhand -3.24357 11.0249
lfingers 7.12502
lthumb 22.4802 39.7365
rfemur -41.5262 -2.65135 12.0151
rtibia 50.9662
rfoot 5.88932 -5.05453
rtoes 6.97536
lfemur -2.55719 -2.27356 -10.7798
ltibia 49.209
lfoot 4.98762 -23.3373
ltoes -28.5841
4245
root 1.13024 17.3142 -6.54584 1.95575 1.50311 0.143788
lowerback 13.2197 -3.19914 -3.68903
upperback 2.54794 -4.67631 1.17928
thorax -4.30805 -2.26016 4.08034
lowerneck -18.8555 -3.38342 -11.7756
upperneck 23.5983 -3.55461 8.94862
head 11.1423 -1.59317 4.73797
rclavicle 1.67849e-014 -8.05078e-015
rhumerus 19.0607 17.3339 -70.0702
rradius 102.889
rwrist -26.5596
rhand -12.4514 24.2324
rfingers 7.12502
rthumb 13.622 -5.30192
lclavicle 1.67849e-014 -8.05078e-015
lhumerus 14.461 -17.9133 83.6344
lradius 100.281
lwrist 25.8572
lhand -4.15201 11.0125
lfingers 7.12502
lthumb 21.608 39.8269
rfemur -40.798 -2.4248 11.6667
rtibia 50.1768
rfoot 5.38016 -5.87843
rtoes 5.76374
lfemur -2.67778 -2.59076 -11.0303
ltibia 48.3722
lfoot 4.87841 -23.5437
ltoes -29.7265
4246
root 1.16696 17.441 -6.53106 2.13661 1.49754 0.243424
lowerback 13.0169 -3.26663 -3.50414
upperback 2.46173 -4.73212 1.24338
thorax -4.2923 -2.28912 4.04143
lowerneck -18.7702 -3.42516 -11.5254
upperneck 22.991 -3.58419 8.6323
head 10.893 -1.61452 4.55032
rclavicle -5.28767e-014 8.29926e-015
rhumerus 16.5996 18.15 -69.6593
rradius 102.54
rwrist -24.1543
rhand -12.6615 24.424
rfingers 7.12502
rthumb 13.4194 -5.12379
lclavicle -5.28767e-014 8.29926e-015
lhumerus 11.5155 -18.3178 83.8667
lradius 99.6427
lwrist 23.4103
lhand -4.38097 10.778
lfingers 7.12502
lthumb 21.3881 39.6175
rfemur -40.1499 -2.25424 11.3917
rtibia 49.8373
rfoot 4.84196 -6.24614
rtoes 5.22601
lfemur -2.88681 -2.98542 -11.2592
ltibia 47.7096
lfoot 3.74615 -22.6152
ltoes -32.0466
4247
root 1.20086 17.5497 -6.5212 2.3535 1.49334 0.245673
lowerback 12.9221 -3.31107 -3.27718
upperback 2.29229 -4.75366 1.36466
thorax -4.425 -2.2958 4.04609
lowerneck -18.7891 -3.52181 -11.1698
upperneck 22.5235 -3.6474 8.04203
head 10.7144 -1.67504 4.24526
rclavicle 6.99474e-015 -2.21148e-015
rhumerus 14.0271 18.9429 -69.2964
rradius 102.177
rwrist -22.0873
rhand -12.9367 24.4951
rfingers 7.12502
rthumb 13.1542 -5.06999
lclavicle 6.99474e-015 -2.21148e-015
lhumerus 8.27362 -18.6968 84.3713
lradius 99.1298
lwrist 20.9197
lhand -4.52592 10.5905
lfingers 7.12502
lthumb 21.2489 39.4458
rfemur -39.6728 -2.09065 11.2815
rtibia 49.9081
rfoot 4.49193 -6.16259
rtoes 6.36317
lfemur -3.21621 -3.20766 -11.3445
ltibia 47.2296
lfoot 1.96329 -20.1476
ltoes -33.4126
4248
root 1.23332 17.6458 -6.51154 2.61239 1.55816 0.395108
lowerback 12.7847 -3.37923 -3.28559
upperback 2.164 -4.8349 1.52564
thorax -4.46235 -2.33246 4.22765
lowerneck -19.2664 -3.60181 -10.9104
upperneck 22.3872 -3.64475 7.53548
head 10.7412 -1.70054 4.0096
rclavicle 5.40446e-014 7.7526e-015
rhumerus 11.4152 19.7368 -69.0472
rradius 101.95
rwrist -20.1035
rhand -13.1887 24.7992
rfingers 7.12502
rthumb 12.9113 -4.78139
lclavicle 5.40446e-014 7.7526e-015
lhumerus 5.0576 -18.8741 85.0234
lradius 98.6722
lwrist 18.5364
lhand -5.44602 10.2976
lfingers 7.12502
lthumb 20.3648 39.2498
rfemur -39.3026 -2.0938 11.0789
rtibia 50.3007
rfoot 4.28025 -5.79855
rtoes 7.39226
lfemur -3.67863 -3.31446 -11.5771
ltibia 46.8984
lfoot 0.351952 -16.2761
ltoes -32.7492
4249
root 1.26351 17.7393 -6.49882 2.8798 1.68487 0.525973
lowerback 12.4474 -3.48658 -3.34273
upperback 2.1762 -4.96604 1.72589
thorax -4.2288 -2.40391 4.46122
lowerneck -20.0934 -3.64242 -10.8218
upperneck 22.4384 -3.58154 7.32763
head 10.9056 -1.67475 3.92786
rclavicle -1.13307e-014 -7.55382e-015
rhumerus 9.06195 20.3576 -68.9591
rradius 101.704
rwrist -17.908
rhand -13.6227 24.8812
rfingers 7.12502
rthumb 12.4929 -4.72534
lclavicle -1.13307e-014 -7.55382e-015
lhumerus 2.31847 -18.8018 85.6554
lradius 97.9507
lwrist 15.9589
lhand -6.12156 9.56959
lfingers 7.12502
lthumb 19.7155 38.5898
rfemur -38.8884 -2.15582 10.9502
rtibia 50.8781
rfoot 4.10335 -5.40672
rtoes 5.83187
lfemur -4.25175 -3.3026 -11.7629
ltibia 46.6348
lfoot -0.672086 -12.5555
ltoes -27.4358
